<svg width="118" height="34" viewBox="0 0 118 34" fill="none" xmlns="http://www.w3.org/2000/svg">
<path d="M24.877 8.68652H20.9395V11.3525H25.5605V13H18.8887V3.04688H25.5469V4.70801H20.9395V7.08008H24.877V8.68652ZM29.4502 7.81152L30.6943 5.60352H32.8066L30.7012 9.22656L32.8955 13H30.7764L29.457 10.6758L28.1445 13H26.0186L28.2129 9.22656L26.1143 5.60352H28.2334L29.4502 7.81152ZM40.415 9.37012C40.415 10.5094 40.1553 11.4232 39.6357 12.1113C39.1208 12.7949 38.4235 13.1367 37.5439 13.1367C36.7965 13.1367 36.1927 12.877 35.7324 12.3574V15.8438H33.7568V5.60352H35.5889L35.6572 6.32812C36.1357 5.75391 36.7601 5.4668 37.5303 5.4668C38.4417 5.4668 39.1504 5.80404 39.6562 6.47852C40.1621 7.15299 40.415 8.08268 40.415 9.26758V9.37012ZM38.4395 9.22656C38.4395 8.53841 38.3164 8.00749 38.0703 7.63379C37.8288 7.26009 37.4756 7.07324 37.0107 7.07324C36.391 7.07324 35.9648 7.31022 35.7324 7.78418V10.8125C35.974 11.3001 36.4046 11.5439 37.0244 11.5439C37.9678 11.5439 38.4395 10.7715 38.4395 9.22656ZM43.7305 13H41.748V2.5H43.7305V13ZM45.0566 9.2334C45.0566 8.49967 45.1979 7.8457 45.4805 7.27148C45.763 6.69727 46.1686 6.25293 46.6973 5.93848C47.2305 5.62402 47.848 5.4668 48.5498 5.4668C49.5479 5.4668 50.3613 5.77214 50.9902 6.38281C51.6237 6.99349 51.9769 7.82292 52.0498 8.87109L52.0635 9.37695C52.0635 10.5117 51.7467 11.4232 51.1133 12.1113C50.4798 12.7949 49.6299 13.1367 48.5635 13.1367C47.4971 13.1367 46.6449 12.7949 46.0068 12.1113C45.3734 11.4277 45.0566 10.498 45.0566 9.32227V9.2334ZM47.0322 9.37695C47.0322 10.0788 47.1644 10.6165 47.4287 10.9902C47.693 11.3594 48.0713 11.5439 48.5635 11.5439C49.042 11.5439 49.4157 11.3617 49.6846 10.9971C49.9535 10.6279 50.0879 10.04 50.0879 9.2334C50.0879 8.54525 49.9535 8.01204 49.6846 7.63379C49.4157 7.25553 49.0374 7.06641 48.5498 7.06641C48.0667 7.06641 47.693 7.25553 47.4287 7.63379C47.1644 8.00749 47.0322 8.58854 47.0322 9.37695ZM57.4365 7.45605C57.1676 7.4196 56.9307 7.40137 56.7256 7.40137C55.9782 7.40137 55.4883 7.6543 55.2559 8.16016V13H53.2803V5.60352H55.1465L55.2012 6.48535C55.5977 5.80632 56.1468 5.4668 56.8486 5.4668C57.0674 5.4668 57.2725 5.49642 57.4639 5.55566L57.4365 7.45605ZM61.6611 13.1367C60.5765 13.1367 59.6924 12.804 59.0088 12.1387C58.3298 11.4733 57.9902 10.5869 57.9902 9.47949V9.28809C57.9902 8.54525 58.1338 7.88216 58.4209 7.29883C58.708 6.71094 59.1136 6.25977 59.6377 5.94531C60.1663 5.6263 60.7679 5.4668 61.4424 5.4668C62.4541 5.4668 63.2493 5.78581 63.8281 6.42383C64.4115 7.06185 64.7031 7.96647 64.7031 9.1377V9.94434H59.9932C60.057 10.4274 60.2484 10.8148 60.5674 11.1064C60.891 11.3981 61.2988 11.5439 61.791 11.5439C62.5521 11.5439 63.1468 11.2682 63.5752 10.7168L64.5459 11.8037C64.2497 12.223 63.8486 12.5511 63.3428 12.7881C62.8369 13.0205 62.2764 13.1367 61.6611 13.1367ZM61.4355 7.06641C61.0436 7.06641 60.7246 7.19857 60.4785 7.46289C60.237 7.72721 60.082 8.10547 60.0137 8.59766H62.7617V8.44043C62.7526 8.00293 62.6341 7.66569 62.4062 7.42871C62.1784 7.18717 61.8548 7.06641 61.4355 7.06641ZM42.042 19.7852V21.6035H43.3066V23.0527H42.042V26.7441C42.042 27.0176 42.0944 27.2135 42.1992 27.332C42.304 27.4505 42.5046 27.5098 42.8008 27.5098C43.0195 27.5098 43.2132 27.4938 43.3818 27.4619V28.959C42.9945 29.0775 42.5957 29.1367 42.1855 29.1367C40.8001 29.1367 40.0938 28.4372 40.0664 27.0381V23.0527H38.9863V21.6035H40.0664V19.7852H42.042ZM46.335 22.4102C46.859 21.7812 47.5176 21.4668 48.3105 21.4668C49.9147 21.4668 50.7282 22.3988 50.751 24.2627V29H48.7754V24.3174C48.7754 23.8936 48.6842 23.5814 48.502 23.3809C48.3197 23.1758 48.0166 23.0732 47.5928 23.0732C47.014 23.0732 46.5947 23.2965 46.335 23.7432V29H44.3594V18.5H46.335V22.4102ZM55.6455 29.1367C54.5609 29.1367 53.6768 28.804 52.9932 28.1387C52.3141 27.4733 51.9746 26.5869 51.9746 25.4795V25.2881C51.9746 24.5452 52.1182 23.8822 52.4053 23.2988C52.6924 22.7109 53.098 22.2598 53.6221 21.9453C54.1507 21.6263 54.7523 21.4668 55.4268 21.4668C56.4385 21.4668 57.2337 21.7858 57.8125 22.4238C58.3958 23.0618 58.6875 23.9665 58.6875 25.1377V25.9443H53.9775C54.0413 26.4274 54.2327 26.8148 54.5518 27.1064C54.8753 27.3981 55.2832 27.5439 55.7754 27.5439C56.5365 27.5439 57.1312 27.2682 57.5596 26.7168L58.5303 27.8037C58.234 28.223 57.833 28.5511 57.3271 28.7881C56.8213 29.0205 56.2607 29.1367 55.6455 29.1367ZM55.4199 23.0664C55.028 23.0664 54.709 23.1986 54.4629 23.4629C54.2214 23.7272 54.0664 24.1055 53.998 24.5977H56.7461V24.4404C56.737 24.0029 56.6185 23.6657 56.3906 23.4287C56.1628 23.1872 55.8392 23.0664 55.4199 23.0664ZM70.9648 19.0469V25.6025C70.9648 26.6917 70.623 27.5531 69.9395 28.1865C69.2604 28.82 68.3307 29.1367 67.1504 29.1367C65.9883 29.1367 65.0654 28.8291 64.3818 28.2139C63.6982 27.5986 63.3496 26.7533 63.3359 25.6777V19.0469H65.3867V25.6162C65.3867 26.2679 65.5417 26.7441 65.8516 27.0449C66.166 27.3411 66.599 27.4893 67.1504 27.4893C68.3034 27.4893 68.889 26.8831 68.9072 25.6709V19.0469H70.9648ZM74.335 21.6035L74.3965 22.458C74.9251 21.7972 75.6338 21.4668 76.5225 21.4668C77.3063 21.4668 77.8896 21.6969 78.2725 22.1572C78.6553 22.6175 78.8512 23.3057 78.8604 24.2217V29H76.8848V24.2695C76.8848 23.8503 76.7936 23.5472 76.6113 23.3604C76.429 23.1689 76.126 23.0732 75.7021 23.0732C75.1462 23.0732 74.7292 23.3102 74.4512 23.7842V29H72.4756V21.6035H74.335ZM82.4492 29H80.4668V21.6035H82.4492V29ZM80.3506 19.6895C80.3506 19.3932 80.4486 19.1494 80.6445 18.958C80.8451 18.7666 81.1162 18.6709 81.458 18.6709C81.7952 18.6709 82.0641 18.7666 82.2646 18.958C82.4652 19.1494 82.5654 19.3932 82.5654 19.6895C82.5654 19.9902 82.4629 20.2363 82.2578 20.4277C82.0573 20.6191 81.7907 20.7148 81.458 20.7148C81.1253 20.7148 80.8564 20.6191 80.6514 20.4277C80.4508 20.2363 80.3506 19.9902 80.3506 19.6895ZM86.8516 26.5869L88.2256 21.6035H90.29L87.7949 29H85.9082L83.4131 21.6035H85.4775L86.8516 26.5869ZM94.4736 29.1367C93.389 29.1367 92.5049 28.804 91.8213 28.1387C91.1423 27.4733 90.8027 26.5869 90.8027 25.4795V25.2881C90.8027 24.5452 90.9463 23.8822 91.2334 23.2988C91.5205 22.7109 91.9261 22.2598 92.4502 21.9453C92.9788 21.6263 93.5804 21.4668 94.2549 21.4668C95.2666 21.4668 96.0618 21.7858 96.6406 22.4238C97.224 23.0618 97.5156 23.9665 97.5156 25.1377V25.9443H92.8057C92.8695 26.4274 93.0609 26.8148 93.3799 27.1064C93.7035 27.3981 94.1113 27.5439 94.6035 27.5439C95.3646 27.5439 95.9593 27.2682 96.3877 26.7168L97.3584 27.8037C97.0622 28.223 96.6611 28.5511 96.1553 28.7881C95.6494 29.0205 95.0889 29.1367 94.4736 29.1367ZM94.248 23.0664C93.8561 23.0664 93.5371 23.1986 93.291 23.4629C93.0495 23.7272 92.8945 24.1055 92.8262 24.5977H95.5742V24.4404C95.5651 24.0029 95.4466 23.6657 95.2188 23.4287C94.9909 23.1872 94.6673 23.0664 94.248 23.0664ZM102.8 23.4561C102.531 23.4196 102.294 23.4014 102.089 23.4014C101.341 23.4014 100.852 23.6543 100.619 24.1602V29H98.6436V21.6035H100.51L100.564 22.4854C100.961 21.8063 101.51 21.4668 102.212 21.4668C102.431 21.4668 102.636 21.4964 102.827 21.5557L102.8 23.4561ZM107.763 26.9561C107.763 26.7145 107.642 26.5254 107.4 26.3887C107.163 26.2474 106.781 26.1221 106.252 26.0127C104.493 25.6436 103.613 24.8962 103.613 23.7705C103.613 23.1143 103.884 22.5674 104.427 22.1299C104.974 21.6878 105.687 21.4668 106.566 21.4668C107.505 21.4668 108.255 21.6878 108.815 22.1299C109.381 22.5719 109.663 23.1462 109.663 23.8525H107.688C107.688 23.57 107.596 23.3376 107.414 23.1553C107.232 22.9684 106.947 22.875 106.56 22.875C106.227 22.875 105.969 22.9502 105.787 23.1006C105.605 23.251 105.514 23.4424 105.514 23.6748C105.514 23.8936 105.616 24.0713 105.821 24.208C106.031 24.3402 106.382 24.4564 106.874 24.5566C107.366 24.6523 107.781 24.7617 108.118 24.8848C109.162 25.2676 109.684 25.9307 109.684 26.874C109.684 27.5485 109.394 28.0954 108.815 28.5146C108.237 28.9294 107.489 29.1367 106.573 29.1367C105.953 29.1367 105.402 29.0273 104.919 28.8086C104.44 28.5853 104.064 28.2822 103.791 27.8994C103.518 27.512 103.381 27.0951 103.381 26.6484H105.254C105.272 26.9993 105.402 27.2682 105.644 27.4551C105.885 27.6419 106.209 27.7354 106.614 27.7354C106.993 27.7354 107.277 27.6647 107.469 27.5234C107.665 27.3776 107.763 27.1885 107.763 26.9561ZM114.366 29.1367C113.282 29.1367 112.397 28.804 111.714 28.1387C111.035 27.4733 110.695 26.5869 110.695 25.4795V25.2881C110.695 24.5452 110.839 23.8822 111.126 23.2988C111.413 22.7109 111.819 22.2598 112.343 21.9453C112.871 21.6263 113.473 21.4668 114.147 21.4668C115.159 21.4668 115.954 21.7858 116.533 22.4238C117.117 23.0618 117.408 23.9665 117.408 25.1377V25.9443H112.698C112.762 26.4274 112.953 26.8148 113.272 27.1064C113.596 27.3981 114.004 27.5439 114.496 27.5439C115.257 27.5439 115.852 27.2682 116.28 26.7168L117.251 27.8037C116.955 28.223 116.554 28.5511 116.048 28.7881C115.542 29.0205 114.981 29.1367 114.366 29.1367ZM114.141 23.0664C113.749 23.0664 113.43 23.1986 113.184 23.4629C112.942 23.7272 112.787 24.1055 112.719 24.5977H115.467V24.4404C115.458 24.0029 115.339 23.6657 115.111 23.4287C114.883 23.1872 114.56 23.0664 114.141 23.0664Z" fill="#EAECF4"/>
<circle cx="7" cy="7" r="7" fill="#EAECF4"/>
<circle cx="7" cy="27" r="7" fill="#EAECF4"/>
<circle cx="7" cy="16" r="7" fill="#EAECF4"/>
</svg>
